<?xml version="1.0" encoding="utf-8"?>
<!-- Generator: Adobe Illustrator 24.1.3, SVG Export Plug-In . SVG Version: 6.00 Build 0)  -->
<svg version="1.1"
	 id="Layer_1" xmlns:cc="http://creativecommons.org/ns#" xmlns:dc="http://purl.org/dc/elements/1.1/" xmlns:inkscape="http://www.inkscape.org/namespaces/inkscape" xmlns:rdf="http://www.w3.org/1999/02/22-rdf-syntax-ns#" xmlns:sodipodi="http://sodipodi.sourceforge.net/DTD/sodipodi-0.dtd" xmlns:svg="http://www.w3.org/2000/svg"
	 xmlns="http://www.w3.org/2000/svg" xmlns:xlink="http://www.w3.org/1999/xlink" x="0px" y="0px" viewBox="0 0 40 40"
	 style="enable-background:new 0 0 40 40;" xml:space="preserve">
<style type="text/css">
	.st0{fill:#F5D327;}
</style>
<g>
	<path class="st0" d="M20.2,5.2c-1.7,0-3.1,1.4-3.1,3.1c0,1.1,0.5,2,1.4,2.6l-4.4,6.2L8,10.4c0.3-0.5,0.5-1.1,0.5-1.8
		c0-1.7-1.4-3.1-3.1-3.1c-1.7,0-3.1,1.4-3.1,3.1c0,1.7,1.4,3.1,3.1,3.1c0.1,0,0.2,0,0.3,0l4.4,15.8h20.3l4.4-15.8c0.1,0,0.2,0,0.3,0
		c1.7,0,3.1-1.4,3.1-3.1c0-1.7-1.4-3.1-3.1-3.1c-1.7,0-3.1,1.4-3.1,3.1c0,0.6,0.2,1.2,0.5,1.7l-6.1,6.7L22,10.9
		c0.8-0.6,1.4-1.5,1.4-2.6C23.4,6.6,22,5.2,20.2,5.2L20.2,5.2z M20.2,7.5c0.5,0,0.9,0.4,0.9,0.9c0,0.5-0.4,0.9-0.9,0.9
		c-0.5,0-0.9-0.4-0.9-0.9C19.3,7.8,19.7,7.5,20.2,7.5z M5.4,7.8c0.5,0,0.9,0.4,0.9,0.9c0,0.3-0.2,0.6-0.4,0.8c0,0,0,0,0,0
		c0,0,0,0-0.1,0c-0.1,0-0.2,0.1-0.4,0.1c-0.5,0-0.9-0.4-0.9-0.9C4.5,8.1,4.9,7.8,5.4,7.8L5.4,7.8z M35.1,7.8c0.5,0,0.9,0.4,0.9,0.9
		c0,0.5-0.4,0.9-0.9,0.9s-0.9-0.4-0.9-0.9C34.2,8.1,34.6,7.8,35.1,7.8z M10.4,29.8v3.9c0,0.6,0.5,1.1,1.1,1.1h17.3
		c0.6,0,1.1-0.5,1.1-1.1v-3.9L10.4,29.8z"/>
</g>
</svg>
