<?xml version="1.0" encoding="utf-8"?>
<!-- Generator: Adobe Illustrator 24.2.0, SVG Export Plug-In . SVG Version: 6.00 Build 0)  -->
<svg version="1.1" id="Layer_1" xmlns="http://www.w3.org/2000/svg" xmlns:xlink="http://www.w3.org/1999/xlink" x="0px" y="0px"
	 viewBox="0 0 16 16" style="enable-background:new 0 0 16 16;" xml:space="preserve">
<style type="text/css">
	.st0{fill-rule:evenodd;clip-rule:evenodd;fill:#B99BF8;fill-opacity:0.6;}
</style>
<g>
	<path class="st0" d="M4,1h8c1.7,0,3,1.3,3,3v8c0,1.7-1.3,3-3,3H4c-1.7,0-3-1.3-3-3V4C1,2.3,2.3,1,4,1z"/>
	<g>
		<g>
			<path d="M9.4,11.1C9,11.3,8.6,11.5,8,11.5c-0.5,0-0.9-0.1-1.3-0.3c-0.4-0.2-0.7-0.4-1-0.7c-0.3-0.3-0.5-0.6-0.7-1
				C4.9,9.1,4.8,8.7,4.8,8.2S4.9,7.4,5,7c0.2-0.4,0.4-0.7,0.7-1c0.3-0.3,0.6-0.5,1-0.7C7.1,5.1,7.5,5,8,5c0.3,0,0.6,0,0.8,0.1
				C9,5.1,9.2,5.2,9.4,5.3S9.8,5.5,10,5.6c0.2,0.1,0.3,0.3,0.5,0.4L9.8,6.7C9.6,6.5,9.3,6.2,9,6.1C8.7,5.9,8.4,5.8,8,5.8
				C7.6,5.8,7.4,5.8,7.1,6C6.8,6.1,6.6,6.3,6.4,6.5C6.2,6.7,6,7,5.9,7.3C5.8,7.5,5.7,7.9,5.7,8.2c0,0.3,0.1,0.7,0.2,0.9
				C6,9.4,6.2,9.7,6.4,9.9c0.2,0.2,0.4,0.4,0.7,0.5c0.3,0.1,0.6,0.2,0.9,0.2c0.4,0,0.8-0.1,1.1-0.3c0.3-0.2,0.6-0.4,0.8-0.7l0.6,0.6
				C10.2,10.6,9.8,10.9,9.4,11.1z"/>
		</g>
	</g>
</g>
</svg>
