<?xml version="1.0" encoding="utf-8"?>
<!-- Generator: Adobe Illustrator 24.2.0, SVG Export Plug-In . SVG Version: 6.00 Build 0)  -->
<svg version="1.1" id="Layer_1" xmlns="http://www.w3.org/2000/svg" xmlns:xlink="http://www.w3.org/1999/xlink" x="0px" y="0px"
	 viewBox="0 0 16 16" style="enable-background:new 0 0 16 16;" xml:space="preserve">
<style type="text/css">
	.st0{fill-rule:evenodd;clip-rule:evenodd;fill:#B99BF8;fill-opacity:0.6;}
</style>
<g>
	<path class="st0" d="M4,1h8c1.7,0,3,1.3,3,3v8c0,1.7-1.3,3-3,3H4c-1.7,0-3-1.3-3-3V4C1,2.3,2.3,1,4,1z"/>
	<g>
		<path d="M11.2,8.6c-0.2,0.4-0.4,0.7-0.7,1c-0.3,0.3-0.6,0.5-0.9,0.6c-0.4,0.1-0.7,0.2-1.1,0.2c-0.3,0-0.6,0-0.8-0.1
			c-0.2-0.1-0.5-0.2-0.6-0.3C6.9,9.9,6.7,9.8,6.6,9.6C6.4,9.5,6.3,9.3,6.1,9.1v3.1H5.2V4.1h0.9v1.2C6.3,5.2,6.4,5,6.6,4.8
			s0.3-0.3,0.5-0.4c0.2-0.1,0.4-0.2,0.6-0.3C8,4,8.2,4,8.5,4c0.4,0,0.7,0.1,1.1,0.2c0.4,0.1,0.7,0.4,1,0.6c0.3,0.3,0.5,0.6,0.7,1
			c0.2,0.4,0.3,0.9,0.3,1.4S11.4,8.2,11.2,8.6z M10.4,6.2c-0.1-0.3-0.3-0.5-0.5-0.8C9.7,5.3,9.5,5.1,9.2,5S8.7,4.8,8.4,4.8
			C8.1,4.8,7.8,4.9,7.5,5C7.3,5.1,7,5.3,6.8,5.5C6.6,5.7,6.4,5.9,6.3,6.2c-0.1,0.3-0.2,0.6-0.2,1s0.1,0.7,0.2,1
			C6.4,8.5,6.6,8.7,6.8,9C7,9.2,7.3,9.3,7.5,9.4c0.3,0.1,0.5,0.2,0.8,0.2c0.3,0,0.6-0.1,0.8-0.2C9.5,9.3,9.7,9.2,9.9,9
			s0.4-0.5,0.5-0.8c0.1-0.3,0.2-0.6,0.2-1C10.5,6.9,10.5,6.5,10.4,6.2z"/>
	</g>
</g>
</svg>
