<?xml version="1.0" encoding="utf-8"?>
<!-- Generator: Adobe Illustrator 24.2.0, SVG Export Plug-In . SVG Version: 6.00 Build 0)  -->
<svg version="1.1" id="Layer_1" xmlns="http://www.w3.org/2000/svg" xmlns:xlink="http://www.w3.org/1999/xlink" x="0px" y="0px"
	 viewBox="0 0 16 16" style="enable-background:new 0 0 16 16;" xml:space="preserve">
<style type="text/css">
	.st0{fill:none;}
	.st1{fill-rule:evenodd;clip-rule:evenodd;fill:#F4AF3D;fill-opacity:0.7;}
	.st2{fill-rule:evenodd;clip-rule:evenodd;fill:#9AA7B0;fill-opacity:0.8;}
	.st3{enable-background:new    ;}
	.st4{fill:#5D4C39;}
</style>
<rect id="frame" y="0" class="st0" width="16" height="16"/>
<g>
	<path class="st1" d="M1,16h15V9H1V16z"/>
	<path class="st2" d="M7,1L3,5h4V1z"/>
	<path class="st2" d="M8,1v5H3v2h10V1H8z"/>
	<g class="st3">
		<path class="st4" d="M5.4,15L3,11.9V15H2v-4.9h1l2.3,3v-3h1.1V15H5.4z"/>
		<path class="st4" d="M7.6,15v-4.9h1.1V15H7.6z"/>
		<path class="st4" d="M13.7,15v-3.2l-1.4,2.1h0l-1.4-2.1V15H9.9v-4.9H11l1.3,2.1l1.3-2.1h1.2V15H13.7z"/>
	</g>
</g>
</svg>
